<svg width="36" height="36" viewBox="0 0 36 36" fill="none" xmlns="http://www.w3.org/2000/svg">
<path d="M18 2.25C19.4918 2.25 20.9226 2.84263 21.9775 3.89752C23.0324 4.95242 23.625 6.38316 23.625 7.875V9H12.375V7.875C12.375 6.38316 12.9676 4.95242 14.0225 3.89752C15.0774 2.84263 16.5082 2.25 18 2.25ZM25.875 9V7.875C25.875 5.78642 25.0453 3.78338 23.5685 2.30653C22.0916 0.829685 20.0886 0 18 0C15.9114 0 13.9084 0.829685 12.4315 2.30653C10.9547 3.78338 10.125 5.78642 10.125 7.875V9H2.25V31.5C2.25 32.6935 2.72411 33.8381 3.56802 34.682C4.41193 35.5259 5.55653 36 6.75 36H29.25C30.4435 36 31.5881 35.5259 32.432 34.682C33.2759 33.8381 33.75 32.6935 33.75 31.5V9H25.875Z" fill="white"/>
</svg>
