<svg width="144" height="60" viewBox="0 0 144 60" fill="none" xmlns="http://www.w3.org/2000/svg">
<path fill-rule="evenodd" clip-rule="evenodd" d="M115 0H15C6.71573 0 0 6.71573 0 15V45C0 53.2843 6.71573 60 15 60H116H120H135C136.105 60 137 59.1046 137 58V58C137 56.8954 136.105 56 135 56H121.5C120.672 56 120 55.3284 120 54.5V54.5C120 53.6716 120.672 53 121.5 53H138.5C141.538 53 144 50.5376 144 47.5V47.5C144 44.4624 141.538 42 138.5 42H121.5C120.672 42 120 41.3284 120 40.5V40.5C120 39.6716 120.672 39 121.5 39H130.5C133.538 39 136 36.5376 136 33.5V33.5C136 30.4624 133.538 28 130.5 28H121.5C120.672 28 120 27.3284 120 26.5V26.5C120 25.6716 120.672 25 121.5 25H126.5C129.538 25 132 22.5376 132 19.5V19.5C132 16.4624 129.538 14 126.5 14H121.5C120.672 14 120 13.3284 120 12.5V12.5C120 11.6716 120.672 11 121.5 11H133.5C136.538 11 139 8.53757 139 5.5V5.5C139 2.46243 136.538 0 133.5 0H120H115Z" fill="#FF6666"/>
</svg>
